<svg id="visual" viewBox="0 0 900 600" width="900" height="600" xmlns="http://www.w3.org/2000/svg" xmlns:xlink="http://www.w3.org/1999/xlink" version="1.1"><path d="M0 404L18.8 402.2C37.7 400.3 75.3 396.7 112.8 393.2C150.3 389.7 187.7 386.3 225.2 387C262.7 387.7 300.3 392.3 337.8 394.3C375.3 396.3 412.7 395.7 450.2 397.3C487.7 399 525.3 403 562.8 400.2C600.3 397.3 637.7 387.7 675.2 388.2C712.7 388.7 750.3 399.3 787.8 400.2C825.3 401 862.7 392 881.3 387.5L900 383L900 601L881.3 601C862.7 601 825.3 601 787.8 601C750.3 601 712.7 601 675.2 601C637.7 601 600.3 601 562.8 601C525.3 601 487.7 601 450.2 601C412.7 601 375.3 601 337.8 601C300.3 601 262.7 601 225.2 601C187.7 601 150.3 601 112.8 601C75.3 601 37.7 601 18.8 601L0 601Z" fill="#FCAF3C" stroke-linecap="round" stroke-linejoin="miter"></path></svg>